<svg version="1.1" id="programing_svg__Layer_1" xmlns="http://www.w3.org/2000/svg" x="0" y="0" viewBox="201.5 320.6 593 350.7" xml:space="preserve"><style>.programing_svg__st1{fill:#2d425e}.programing_svg__st3{fill:#cecece}.programing_svg__st4{fill:#fff}.programing_svg__st5,.programing_svg__st7{fill:none;stroke:#1f3969;stroke-width:4;stroke-linecap:round;stroke-linejoin:round;stroke-miterlimit:10}.programing_svg__st7{opacity:.28;fill:#1f3969}.programing_svg__st9{fill:#5f5aff}.programing_svg__st10{fill:#f6f9fd}.programing_svg__st11{fill:#bfcfe2}.programing_svg__st13{fill:#2aa1ff}.programing_svg__st16{fill:none;stroke:#fff;stroke-width:2;stroke-linecap:round;stroke-linejoin:round;stroke-miterlimit:10}.programing_svg__st17{fill:#1f3969}.programing_svg__st18{stroke:#fff}.programing_svg__st18,.programing_svg__st19,.programing_svg__st20,.programing_svg__st21,.programing_svg__st22{fill:none;stroke-width:4;stroke-linecap:round;stroke-linejoin:round;stroke-miterlimit:10}.programing_svg__st19{stroke:#7bffa0}.programing_svg__st20{stroke:#9169ff}.programing_svg__st21{stroke:#ffc47d}.programing_svg__st22{stroke:#ff5757}.programing_svg__st25{fill:#6567c3}</style><g id="programing_svg__XMLID_34_"><path id="programing_svg__XMLID_223_" d="M789.5 666.3H169.2c-5 0-9-4-9-9s4-9 9-9h620.3c5 0 9 4 9 9s-4 9-9 9z" fill="#c9c9c9"/><g id="programing_svg__XMLID_19_"><g id="programing_svg__XMLID_163_"><path id="programing_svg__XMLID_178_" class="programing_svg__st3" d="M285.9 573.3c-9.6 0-17.3-7.8-17.3-17.3s7.8-17.3 17.3-17.3h98v34.7h-98z"/><path id="programing_svg__XMLID_162_" class="programing_svg__st4" d="M389.6 579.3H285.9c-12.9 0-23.3-10.5-23.3-23.3 0-12.9 10.5-23.3 23.3-23.3h103.7v46.6z"/><path id="programing_svg__XMLID_164_" class="programing_svg__st5" d="M279.5 550.6h104.4"/><path id="programing_svg__XMLID_173_" class="programing_svg__st5" d="M279.5 561.2h104.4"/><path id="programing_svg__XMLID_179_" class="programing_svg__st5" d="M285.9 573.3c-9.6 0-17.3-7.8-17.3-17.3s7.8-17.3 17.3-17.3h98v34.7h-98z"/><path id="programing_svg__XMLID_161_" d="M285.9 573.3c-9.6 0-17.3-7.8-17.3-17.3s7.8-17.3 17.3-17.3h99.7l4-6H285.9c-12.9 0-23.3 10.5-23.3 23.3 0 12.9 10.5 23.3 23.3 23.3h103.7l-4-6h-99.7z" fill="#ff3e3e"/><path id="programing_svg__XMLID_182_" class="programing_svg__st5" d="M285.9 573.3c-9.6 0-17.3-7.8-17.3-17.3s7.8-17.3 17.3-17.3h99.7l4-6H285.9c-12.9 0-23.3 10.5-23.3 23.3 0 12.9 10.5 23.3 23.3 23.3h103.7l-4-6h-99.7z"/><path id="programing_svg__XMLID_224_" class="programing_svg__st7" d="M348.9 532.6h18.4v46.7h-18.4z"/></g><g id="programing_svg__XMLID_160_"><path id="programing_svg__XMLID_157_" d="M378.9 617.8H189c-3.7 0-6.8-3-6.8-6.8v-25c0-3.7 3-6.8 6.8-6.8h189.9c3.7 0 6.8 3 6.8 6.8v25c0 3.8-3 6.8-6.8 6.8z" fill="#50b56f"/><path class="programing_svg__st4" d="M240.3 599.8h-2.6v5.5H236V592h4.3c3.1 0 4.6 1.7 4.6 3.9 0 2-1.3 3.9-4.6 3.9zm0-1.5c2 0 2.8-.9 2.8-2.4s-.8-2.5-2.8-2.5h-2.6v4.9h2.6zm9.4-6.3h1.9l3.3 6.7 3.3-6.7h1.9l-4.3 8.3v5h-1.7v-5l-4.4-8.3zm15.2 0h9v1.4h-3.6v11.9h-1.7v-11.9H265V592zm23.5 7.3h-6.8v6h-1.7V592h1.7v5.8h6.8V592h1.7v13.3h-1.7v-6zm14.5 6.1c-3.7 0-6.7-2.8-6.7-6.8s2.9-6.8 6.7-6.8c3.8 0 6.7 2.8 6.7 6.8-.1 4-3 6.8-6.7 6.8zm0-1.5c2.8 0 4.9-2 4.9-5.3s-2.1-5.3-4.9-5.3-4.9 2-4.9 5.3 2.1 5.3 4.9 5.3zm23.2-11.9v13.3h-1.7l-7-10.6v10.6h-1.7V592h1.7l7 10.5V592h1.7z"/><path id="programing_svg__XMLID_146_" class="programing_svg__st5" d="M378.9 617.8H189c-3.7 0-6.8-3-6.8-6.8v-25c0-3.7 3-6.8 6.8-6.8h189.9c3.7 0 6.8 3 6.8 6.8v25c0 3.8-3 6.8-6.8 6.8z"/></g><path id="programing_svg__XMLID_246_" class="programing_svg__st7" d="M378.9 579.3h-30v15c0 9.4 7.6 17.1 17.1 17.1h19.7v-25.3c0-3.8-3-6.8-6.8-6.8z"/><path id="programing_svg__XMLID_35_" class="programing_svg__st3" d="M432.4 625.6h-220c1.3 3.2 2 7.2 2 11.4s-.7 8.1-2 11.4h219.9c-1.3-3.2-2-7.2-2-11.4.1-4.3.8-8.2 2.1-11.4z"/><path id="programing_svg__XMLID_156_" class="programing_svg__st9" d="M206.5 619.5h231.9v6H206.5z"/><path id="programing_svg__XMLID_32_" class="programing_svg__st5" d="M206.5 619.5h231.9v6H206.5z"/><path id="programing_svg__XMLID_147_" class="programing_svg__st10" d="M206.5 648.3h231.9v6H206.5z"/><path id="programing_svg__XMLID_39_" class="programing_svg__st9" d="M206.5 648.3h231.9v6H206.5z"/><path id="programing_svg__XMLID_37_" class="programing_svg__st5" d="M206.5 648.3h231.9v6H206.5z"/><path id="programing_svg__XMLID_69_" class="programing_svg__st11" d="M553.6 633l-3-33.7h-49.4l-3 33.7c-.7 7.8-5.4 15.3-12.8 21.3v.1h81v-.1c-7.4-6-12.1-13.5-12.8-21.3z"/><path id="programing_svg__XMLID_33_" class="programing_svg__st7" d="M501.2 599.3l-1.8 20.2h53l-1.8-20.2z"/><path id="programing_svg__XMLID_10_" class="programing_svg__st5" d="M553.6 633l-3-33.7h-49.4l-3 33.7c-.7 7.8-5.4 15.3-12.8 21.3v.1h81v-.1c-7.4-6-12.1-13.5-12.8-21.3z"/><path id="programing_svg__XMLID_13_" class="programing_svg__st4" d="M683.9 604.3h-316c-6.6 0-12-5.4-12-12v-206c0-6.6 5.4-12 12-12h316c6.6 0 12 5.4 12 12v206c0 6.7-5.4 12-12 12z"/><path id="programing_svg__XMLID_63_" class="programing_svg__st11" d="M683.9 604.3h-316c-6.6 0-12-5.4-12-12v-206c0-6.6 5.4-12 12-12h316c6.6 0 12 5.4 12 12v206c0 6.7-5.4 12-12 12z"/><path id="programing_svg__XMLID_4_" class="programing_svg__st5" d="M683.9 604.3h-316c-6.6 0-12-5.4-12-12v-206c0-6.6 5.4-12 12-12h316c6.6 0 12 5.4 12 12v206c0 6.7-5.4 12-12 12z"/><path id="programing_svg__XMLID_68_" transform="rotate(90 525.914 478.642)" class="programing_svg__st10" d="M438.6 325.6h174.6v306H438.6z"/><path id="programing_svg__XMLID_197_" class="programing_svg__st7" d="M383.9 374.3v138.6c0 4.4 3.6 8 8 8H581c4.4 0 8-3.6 8-8V374.3H383.9z"/><path id="programing_svg__XMLID_11_" transform="rotate(90 525.914 478.642)" class="programing_svg__st5" d="M438.6 325.6h174.6v306H438.6z"/><path id="programing_svg__XMLID_9_" class="programing_svg__st5" d="M512.5 585h26.9"/><path id="programing_svg__XMLID_15_" class="programing_svg__st1" d="M590 509.9H400.9c-4.4 0-8-3.6-8-8V353.7c0-4.4 3.6-8 8-8H590c4.4 0 8 3.6 8 8V502c0 4.4-3.6 7.9-8 7.9z"/><path id="programing_svg__XMLID_17_" class="programing_svg__st5" d="M598 365.1H392.9v-11.5c0-4.4 3.6-8 8-8H590c4.4 0 8 3.6 8 8v11.5z"/><path id="programing_svg__XMLID_23_" d="M598 368.9H392.9v-15.3c0-4.4 3.6-8 8-8H590c4.4 0 8 3.6 8 8v15.3z" fill="#d0ddf0"/><path id="programing_svg__XMLID_18_" class="programing_svg__st5" d="M598 368.9H392.9v-15.3c0-4.4 3.6-8 8-8H590c4.4 0 8 3.6 8 8v15.3z"/><path id="programing_svg__XMLID_20_" class="programing_svg__st5" d="M598 368.9H392.9v-15.3c0-4.4 3.6-8 8-8H590c4.4 0 8 3.6 8 8v15.3z"/><path id="programing_svg__XMLID_12_" class="programing_svg__st5" d="M590 509.9H400.9c-4.4 0-8-3.6-8-8V353.7c0-4.4 3.6-8 8-8H590c4.4 0 8 3.6 8 8V502c0 4.4-3.6 7.9-8 7.9z"/><g id="programing_svg__XMLID_72_"><path id="programing_svg__XMLID_7_" class="programing_svg__st7" d="M688.7 545.3h-116c-4.4 0-8-3.6-8-8V414.4c0-4.4 3.6-8 8-8h116c4.4 0 8 3.6 8 8v122.9c0 4.5-3.6 8-8 8z"/><path id="programing_svg__XMLID_16_" class="programing_svg__st13" d="M696.7 538.3h-116c-4.4 0-8-3.6-8-8V407.4c0-4.4 3.6-8 8-8h116c4.4 0 8 3.6 8 8v122.9c0 4.5-3.6 8-8 8z"/><path id="programing_svg__XMLID_14_" class="programing_svg__st5" d="M696.7 538.3h-116c-4.4 0-8-3.6-8-8V407.4c0-4.4 3.6-8 8-8h116c4.4 0 8 3.6 8 8v122.9c0 4.5-3.6 8-8 8z"/><path id="programing_svg__XMLID_75_" d="M679.4 437.5h-81.6c-2.9 0-5.2-2.3-5.2-5.2v-7.8c0-2.9 2.3-5.2 5.2-5.2h81.6c2.9 0 5.2 2.3 5.2 5.2v7.8c0 2.9-2.3 5.2-5.2 5.2z" opacity=".34" fill="none" stroke="#fff" stroke-width="2" stroke-linecap="round" stroke-linejoin="round" stroke-miterlimit="10"/><g id="programing_svg__XMLID_143_" opacity=".34"><path id="programing_svg__XMLID_78_" class="programing_svg__st16" d="M643.6 466.8H598c-2.9 0-5.2-2.3-5.2-5.2v-7.8c0-2.9 2.3-5.2 5.2-5.2h45.6c2.9 0 5.2 2.3 5.2 5.2v7.8c-.1 2.9-2.4 5.2-5.2 5.2z"/><path id="programing_svg__XMLID_79_" class="programing_svg__st16" d="M679.5 466.8h-17.7c-2.9 0-5.2-2.3-5.2-5.2v-7.8c0-2.9 2.3-5.2 5.2-5.2h17.7c2.9 0 5.2 2.3 5.2 5.2v7.8c0 2.9-2.3 5.2-5.2 5.2z"/></g><g id="programing_svg__XMLID_76_"><path id="programing_svg__XMLID_135_" class="programing_svg__st16" d="M592.7 497.2h91.9"/><path id="programing_svg__XMLID_136_" class="programing_svg__st16" d="M592.7 508h91.9"/><path id="programing_svg__XMLID_138_" class="programing_svg__st16" d="M592.7 518.8h56"/></g></g><circle id="programing_svg__XMLID_24_" class="programing_svg__st17" cx="413" cy="357.3" r="4"/><circle id="programing_svg__XMLID_28_" class="programing_svg__st17" cx="426.9" cy="357.3" r="4"/><circle id="programing_svg__XMLID_38_" class="programing_svg__st17" cx="440.8" cy="357.3" r="4"/><g id="programing_svg__XMLID_61_"><path id="programing_svg__XMLID_54_" class="programing_svg__st18" d="M510.7 387.4h13"/><path id="programing_svg__XMLID_66_" class="programing_svg__st19" d="M444.8 387.4h56.3"/><path id="programing_svg__XMLID_29_" class="programing_svg__st20" d="M417 387.4h19.8"/></g><g id="programing_svg__XMLID_42_"><path id="programing_svg__XMLID_62_" class="programing_svg__st20" d="M442.8 485.9h43"/><path id="programing_svg__XMLID_30_" class="programing_svg__st19" d="M417 485.9h13.9"/></g><g id="programing_svg__XMLID_27_"><path id="programing_svg__XMLID_60_" class="programing_svg__st18" d="M501.1 399.7h8.1"/><path id="programing_svg__XMLID_45_" class="programing_svg__st20" d="M464.3 399.7h27.2"/><path id="programing_svg__XMLID_47_" class="programing_svg__st21" d="M426.9 399.7h27.7"/></g><g id="programing_svg__XMLID_49_"><path id="programing_svg__XMLID_59_" class="programing_svg__st18" d="M469.8 412h23.9"/><path id="programing_svg__XMLID_50_" class="programing_svg__st22" d="M439.8 412h22.5"/></g><g id="programing_svg__XMLID_65_"><path id="programing_svg__XMLID_58_" class="programing_svg__st18" d="M473 424.3h4.9"/><path id="programing_svg__XMLID_70_" class="programing_svg__st20" d="M453.2 424.3h11.1"/><path id="programing_svg__XMLID_67_" class="programing_svg__st19" d="M426.9 424.3h17.9"/></g><g id="programing_svg__XMLID_73_"><path id="programing_svg__XMLID_77_" class="programing_svg__st21" d="M465.3 436.7h31.9"/><path id="programing_svg__XMLID_74_" class="programing_svg__st22" d="M426.9 436.7h28.6"/></g><g id="programing_svg__XMLID_80_"><path id="programing_svg__XMLID_64_" class="programing_svg__st20" d="M502.2 449h17.3"/><path id="programing_svg__XMLID_84_" class="programing_svg__st22" d="M465.3 449H493"/><path id="programing_svg__XMLID_81_" class="programing_svg__st19" d="M439.8 449h15.7"/></g><g id="programing_svg__XMLID_87_"><path id="programing_svg__XMLID_95_" class="programing_svg__st18" d="M477.9 461.3H493"/><path id="programing_svg__XMLID_90_" class="programing_svg__st20" d="M439.8 461.3h27.7"/></g><g id="programing_svg__XMLID_98_"><path id="programing_svg__XMLID_71_" class="programing_svg__st18" d="M517.2 473.6h17.3"/><path id="programing_svg__XMLID_102_" class="programing_svg__st21" d="M464.3 473.6h43.5"/><path id="programing_svg__XMLID_99_" class="programing_svg__st18" d="M426.9 473.6h27.7"/></g><path id="programing_svg__XMLID_145_" class="programing_svg__st5" d="M214.9 632.5h215.5"/><path id="programing_svg__XMLID_151_" class="programing_svg__st5" d="M214.9 640.5h215.5"/><path id="programing_svg__XMLID_158_" class="programing_svg__st5" d="M432.4 625.6h-220c1.3 3.2 2 7.2 2 11.4s-.7 8.1-2 11.4h219.9c-1.3-3.2-2-7.2-2-11.4.1-4.3.8-8.2 2.1-11.4z"/></g><g id="programing_svg__XMLID_222_"><g id="programing_svg__XMLID_174_"><path id="programing_svg__XMLID_177_" transform="rotate(-6.686 727.67 580.567)" fill="#ffa364" d="M722.8 544.4h9.8V617h-9.8z"/><path id="programing_svg__XMLID_31_" transform="rotate(-6.686 723.86 548.164)" class="programing_svg__st13" d="M719 544.7h9.8v7.4H719z"/><path id="programing_svg__XMLID_217_" transform="rotate(-6.686 723.86 548.164)" class="programing_svg__st5" d="M719 544.7h9.8v7.4H719z"/><path id="programing_svg__XMLID_22_" transform="rotate(-6.686 727.67 580.567)" class="programing_svg__st5" d="M722.8 544.4h9.8V617h-9.8z"/></g><g id="programing_svg__XMLID_189_"><path id="programing_svg__XMLID_218_" transform="rotate(6.206 746.096 594.165)" fill="#ff5252" d="M741.4 558.1h9.8v72.6h-9.8z"/><path id="programing_svg__XMLID_214_" transform="rotate(6.206 746.096 594.165)" class="programing_svg__st5" d="M741.4 558.1h9.8v72.6h-9.8z"/><path id="programing_svg__XMLID_220_" transform="rotate(6.206 749.62 561.737)" class="programing_svg__st1" d="M745 558.3h9.8v7.4H745z"/><path id="programing_svg__XMLID_211_" transform="rotate(6.206 749.62 561.737)" class="programing_svg__st5" d="M745 558.3h9.8v7.4H745z"/></g><path id="programing_svg__XMLID_26_" class="programing_svg__st25" d="M761.1 654.6h-39.3l-6.4-60.2h52.1z"/><path id="programing_svg__XMLID_233_" class="programing_svg__st25" d="M715.4 594.4l.1 1.1h39.7l-6.3 59.1h12.2l6.4-60.2z"/><path id="programing_svg__XMLID_21_" class="programing_svg__st5" d="M761.1 654.6h-39.3l-6.4-60.2h52.1z"/></g></g></svg>