<svg version="1.1" id="wacom-tablet_svg__Layer_1" xmlns="http://www.w3.org/2000/svg" x="0" y="0" viewBox="88.4 157.3 776.7 627.3" xml:space="preserve"><style>.wacom-tablet_svg__wacom-tablet_svg__st2{opacity:.5;fill:#232323;stroke:#232323;stroke-width:8;stroke-linecap:round;stroke-linejoin:round;stroke-miterlimit:10;enable-background:new}.wacom-tablet_svg__wacom-tablet_svg__st3{fill:#43597a}.wacom-tablet_svg__wacom-tablet_svg__st5{fill:#394e6b}.wacom-tablet_svg__wacom-tablet_svg__st6{fill:none;stroke:#202454;stroke-width:8;stroke-linecap:round;stroke-linejoin:round;stroke-miterlimit:10}.wacom-tablet_svg__wacom-tablet_svg__st7{fill:#2f3f56}.wacom-tablet_svg__wacom-tablet_svg__st8{fill:none;stroke:#283356;stroke-linecap:round;stroke-linejoin:round;stroke-miterlimit:10}.wacom-tablet_svg__wacom-tablet_svg__st10,.wacom-tablet_svg__wacom-tablet_svg__st9{opacity:.8}.wacom-tablet_svg__wacom-tablet_svg__st10{fill:#b4c7e7;enable-background:new}.wacom-tablet_svg__wacom-tablet_svg__st13{fill:none;stroke:#707a99;stroke-width:3;stroke-miterlimit:10}.wacom-tablet_svg__wacom-tablet_svg__st13,.wacom-tablet_svg__wacom-tablet_svg__st15,.wacom-tablet_svg__wacom-tablet_svg__st16,.wacom-tablet_svg__wacom-tablet_svg__st19{stroke-linecap:round;stroke-linejoin:round}.wacom-tablet_svg__wacom-tablet_svg__st15,.wacom-tablet_svg__wacom-tablet_svg__st16{fill:#232323;stroke:#232323;stroke-width:8.0001;stroke-miterlimit:10.0001}.wacom-tablet_svg__wacom-tablet_svg__st16{stroke-width:8;stroke-miterlimit:10}.wacom-tablet_svg__wacom-tablet_svg__st19{fill:none;stroke:#202454;stroke-width:8.0001;stroke-miterlimit:10.0001}.wacom-tablet_svg__wacom-tablet_svg__st21{fill:#334665}.wacom-tablet_svg__wacom-tablet_svg__st22{opacity:.4;fill:#43597a;enable-background:new}</style><path id="wacom-tablet_svg__wacom-tablet_svg__designerfav-tool-wacom_svg__XMLID_276_" class="wacom-tablet_svg__wacom-tablet_svg__st2" d="M765 498.6l-456.9 279c-14.1 8.6-32.6 4.2-41.2-10L109.3 509.5c-8.6-14.1-4.2-32.6 10-41.2l456.9-278.9c14.1-8.6 32.6-4.2 41.2 10L775 457.5c8.6 14 4.1 32.5-10 41.1z"/><path id="wacom-tablet_svg__wacom-tablet_svg__designerfav-tool-wacom_svg__XMLID_74_" class="wacom-tablet_svg__wacom-tablet_svg__st3" d="M767.7 477L310.8 755.9c-14.1 8.6-32.6 4.2-41.2-10L112 487.9c-8.6-14.1-4.2-32.6 10-41.2l456.9-278.9c14.1-8.6 32.6-4.2 41.2 10l157.6 258.1c8.6 14 4.2 32.5-10 41.1z"/><path id="wacom-tablet_svg__wacom-tablet_svg__designerfav-tool-wacom_svg__XMLID_148_" d="M571.4 172.3l-9.9 6.1c18.3-11.2 42.2-5.4 53.4 12.9l148.4 243c11.2 18.3 5.4 42.2-12.9 53.4l9.9-6.1c18.3-11.2 24.1-35.1 12.9-53.4l-148.4-243c-11.2-18.3-35.1-24-53.4-12.9z" opacity=".7" fill="#6a87ad"/><path id="wacom-tablet_svg__wacom-tablet_svg__designerfav-tool-wacom_svg__XMLID_147_" class="wacom-tablet_svg__wacom-tablet_svg__st5" d="M277.7 730.7l-148.4-243c-11.2-18.3-5.4-42.2 12.9-53.4l-14.9 9.1c-18.3 11.2-24.1 35.1-12.9 53.4l148.4 243c11.2 18.3 35.1 24.1 53.4 12.9l14.9-9.1c-18.3 11.2-42.2 5.4-53.4-12.9z"/><path id="wacom-tablet_svg__wacom-tablet_svg__designerfav-tool-wacom_svg__XMLID_1_" class="wacom-tablet_svg__wacom-tablet_svg__st6" d="M767.7 477L310.8 755.9c-14.1 8.6-32.6 4.2-41.2-10L112 487.9c-8.6-14.1-4.2-32.6 10-41.2l456.9-278.9c14.1-8.6 32.6-4.2 41.2 10l157.6 258.1c8.6 14 4.2 32.5-10 41.1z"/><path id="wacom-tablet_svg__wacom-tablet_svg__designerfav-tool-wacom_svg__XMLID_234_" class="wacom-tablet_svg__wacom-tablet_svg__st7" d="M746.1 462.9L388 681.5c-8.5 5.2-19.6 2.5-24.7-6L217.5 436.8c-5.2-8.5-2.5-19.6 6-24.7l358.1-218.6c8.5-5.2 19.6-2.5 24.7 6l145.8 238.8c5.2 8.4 2.5 19.4-6 24.6z"/><g id="wacom-tablet_svg__wacom-tablet_svg__designerfav-tool-wacom_svg__XMLID_21_"><path id="wacom-tablet_svg__wacom-tablet_svg__designerfav-tool-wacom_svg__XMLID_56_" class="wacom-tablet_svg__wacom-tablet_svg__st8" d="M270 383.6l164.5 269.5"/><path id="wacom-tablet_svg__wacom-tablet_svg__designerfav-tool-wacom_svg__XMLID_58_" class="wacom-tablet_svg__wacom-tablet_svg__st8" d="M323 351.3l164.5 269.5"/><path id="wacom-tablet_svg__wacom-tablet_svg__designerfav-tool-wacom_svg__XMLID_59_" class="wacom-tablet_svg__wacom-tablet_svg__st8" d="M376 318.9l164.6 269.5"/><path id="wacom-tablet_svg__wacom-tablet_svg__designerfav-tool-wacom_svg__XMLID_60_" class="wacom-tablet_svg__wacom-tablet_svg__st8" d="M429 286.5L593.6 556"/><path id="wacom-tablet_svg__wacom-tablet_svg__designerfav-tool-wacom_svg__XMLID_62_" class="wacom-tablet_svg__wacom-tablet_svg__st8" d="M482.1 254.2l164.5 269.5"/><path id="wacom-tablet_svg__wacom-tablet_svg__designerfav-tool-wacom_svg__XMLID_63_" class="wacom-tablet_svg__wacom-tablet_svg__st8" d="M535.1 221.8l164.5 269.5"/><path id="wacom-tablet_svg__wacom-tablet_svg__designerfav-tool-wacom_svg__XMLID_64_" class="wacom-tablet_svg__wacom-tablet_svg__st8" d="M241.8 476.6l388.9-237.4"/><path id="wacom-tablet_svg__wacom-tablet_svg__designerfav-tool-wacom_svg__XMLID_66_" class="wacom-tablet_svg__wacom-tablet_svg__st8" d="M274.2 529.6L663 292.3"/><path id="wacom-tablet_svg__wacom-tablet_svg__designerfav-tool-wacom_svg__XMLID_67_" class="wacom-tablet_svg__wacom-tablet_svg__st8" d="M306.6 582.7l388.8-237.4"/><path id="wacom-tablet_svg__wacom-tablet_svg__designerfav-tool-wacom_svg__XMLID_68_" class="wacom-tablet_svg__wacom-tablet_svg__st8" d="M338.9 635.7l388.9-237.4"/></g><path id="wacom-tablet_svg__wacom-tablet_svg__designerfav-tool-wacom_svg__XMLID_4_" class="wacom-tablet_svg__wacom-tablet_svg__st6" d="M746.1 462.9L388 681.5c-8.5 5.2-19.6 2.5-24.7-6L217.5 436.8c-5.2-8.5-2.5-19.6 6-24.7l358.1-218.6c8.5-5.2 19.6-2.5 24.7 6l145.8 238.8c5.2 8.4 2.5 19.4-6 24.6z"/><g id="wacom-tablet_svg__wacom-tablet_svg__designerfav-tool-wacom_svg__XMLID_75_" class="wacom-tablet_svg__wacom-tablet_svg__st9"><path id="wacom-tablet_svg__wacom-tablet_svg__designerfav-tool-wacom_svg__XMLID_78_" class="wacom-tablet_svg__wacom-tablet_svg__st3" d="M328.4 696.7L303.3 712c-2.8 1.7-6.5.8-8.2-2l-9.9-16.3c-1.7-2.8-.8-6.5 2-8.2l25.1-15.3c2.8-1.7 6.5-.8 8.2 2l9.9 16.3c1.7 2.8.8 6.5-2 8.2z"/><path id="wacom-tablet_svg__wacom-tablet_svg__designerfav-tool-wacom_svg__XMLID_76_" class="wacom-tablet_svg__wacom-tablet_svg__st3" d="M301.4 652.5l-25.1 15.3c-2.8 1.7-6.5.8-8.2-2l-9.9-16.3c-1.7-2.8-.8-6.5 2-8.2l25.1-15.3c2.8-1.7 6.5-.8 8.2 2l9.9 16.3c1.8 2.8.9 6.5-2 8.2z"/></g><g id="wacom-tablet_svg__wacom-tablet_svg__designerfav-tool-wacom_svg__XMLID_7_"><path id="wacom-tablet_svg__wacom-tablet_svg__designerfav-tool-wacom_svg__XMLID_11_" class="wacom-tablet_svg__wacom-tablet_svg__st6" d="M328.4 696.7L303.3 712c-2.8 1.7-6.5.8-8.2-2l-9.9-16.3c-1.7-2.8-.8-6.5 2-8.2l25.1-15.3c2.8-1.7 6.5-.8 8.2 2l9.9 16.3c1.7 2.8.8 6.5-2 8.2z"/><path id="wacom-tablet_svg__wacom-tablet_svg__designerfav-tool-wacom_svg__XMLID_13_" class="wacom-tablet_svg__wacom-tablet_svg__st6" d="M301.4 652.5l-25.1 15.3c-2.8 1.7-6.5.8-8.2-2l-9.9-16.3c-1.7-2.8-.8-6.5 2-8.2l25.1-15.3c2.8-1.7 6.5-.8 8.2 2l9.9 16.3c1.8 2.8.9 6.5-2 8.2z"/></g><g id="wacom-tablet_svg__wacom-tablet_svg__designerfav-tool-wacom_svg__XMLID_14_" class="wacom-tablet_svg__wacom-tablet_svg__st9"><path id="wacom-tablet_svg__wacom-tablet_svg__designerfav-tool-wacom_svg__XMLID_16_" class="wacom-tablet_svg__wacom-tablet_svg__st3" d="M230.4 536.2l-25.1 15.3c-2.8 1.7-6.5.8-8.2-2l-9.9-16.3c-1.7-2.8-.8-6.5 2-8.2l25.1-15.3c2.8-1.7 6.5-.8 8.2 2l9.9 16.3c1.7 2.7.8 6.4-2 8.2z"/><path id="wacom-tablet_svg__wacom-tablet_svg__designerfav-tool-wacom_svg__XMLID_15_" class="wacom-tablet_svg__wacom-tablet_svg__st3" d="M203.4 492l-25.1 15.3c-2.8 1.7-6.5.8-8.2-2l-9.9-16.3c-1.7-2.8-.8-6.5 2-8.2l25.1-15.3c2.8-1.7 6.5-.8 8.2 2l9.9 16.3c1.8 2.8.9 6.5-2 8.2z"/></g><g id="wacom-tablet_svg__wacom-tablet_svg__designerfav-tool-wacom_svg__XMLID_193_"><path id="wacom-tablet_svg__wacom-tablet_svg__designerfav-tool-wacom_svg__XMLID_227_" class="wacom-tablet_svg__wacom-tablet_svg__st6" d="M230.4 536.2l-25.1 15.3c-2.8 1.7-6.5.8-8.2-2l-9.9-16.3c-1.7-2.8-.8-6.5 2-8.2l25.1-15.3c2.8-1.7 6.5-.8 8.2 2l9.9 16.3c1.7 2.7.8 6.4-2 8.2z"/><path id="wacom-tablet_svg__wacom-tablet_svg__designerfav-tool-wacom_svg__XMLID_213_" class="wacom-tablet_svg__wacom-tablet_svg__st6" d="M203.4 492l-25.1 15.3c-2.8 1.7-6.5.8-8.2-2l-9.9-16.3c-1.7-2.8-.8-6.5 2-8.2l25.1-15.3c2.8-1.7 6.5-.8 8.2 2l9.9 16.3c1.8 2.8.9 6.5-2 8.2z"/></g><circle id="wacom-tablet_svg__wacom-tablet_svg__designerfav-tool-wacom_svg__XMLID_79_" transform="rotate(-5.655 245.293 588.682) scale(.99997)" class="wacom-tablet_svg__wacom-tablet_svg__st10" cx="245.3" cy="588.7" r="31.1"/><circle id="wacom-tablet_svg__wacom-tablet_svg__designerfav-tool-wacom_svg__XMLID_8_" transform="rotate(-5.655 245.293 588.682) scale(.99997)" cx="245.3" cy="588.7" fill="none" stroke="#22293f" stroke-width="6" stroke-linecap="round" stroke-linejoin="round" stroke-miterlimit="10" r="31.1"/><circle id="wacom-tablet_svg__wacom-tablet_svg__designerfav-tool-wacom_svg__XMLID_141_" transform="rotate(-5.655 245.293 588.682) scale(.99997)" class="wacom-tablet_svg__wacom-tablet_svg__st6" cx="245.3" cy="588.7" r="31.1"/><path id="wacom-tablet_svg__wacom-tablet_svg__designerfav-tool-wacom_svg__XMLID_143_" d="M232 596.8c-4.5-7.3-2.1-16.9 5.2-21.3" fill="none" stroke="#202454" stroke-width="5" stroke-linecap="round" stroke-linejoin="round" stroke-miterlimit="10"/><g id="wacom-tablet_svg__wacom-tablet_svg__designerfav-tool-wacom_svg__XMLID_25_"><g id="wacom-tablet_svg__wacom-tablet_svg__designerfav-tool-wacom_svg__XMLID_253_"><g id="wacom-tablet_svg__wacom-tablet_svg__designerfav-tool-wacom_svg__XMLID_270_"><path id="wacom-tablet_svg__wacom-tablet_svg__designerfav-tool-wacom_svg__XMLID_272_" class="wacom-tablet_svg__wacom-tablet_svg__st13" d="M663.9 432.8l4 6.6"/><path id="wacom-tablet_svg__wacom-tablet_svg__designerfav-tool-wacom_svg__XMLID_271_" class="wacom-tablet_svg__wacom-tablet_svg__st13" d="M669.2 434l-6.6 4.1"/></g><g id="wacom-tablet_svg__wacom-tablet_svg__designerfav-tool-wacom_svg__XMLID_267_"><path id="wacom-tablet_svg__wacom-tablet_svg__designerfav-tool-wacom_svg__XMLID_269_" class="wacom-tablet_svg__wacom-tablet_svg__st13" d="M610.9 465.1l4 6.7"/><path id="wacom-tablet_svg__wacom-tablet_svg__designerfav-tool-wacom_svg__XMLID_268_" class="wacom-tablet_svg__wacom-tablet_svg__st13" d="M616.2 466.4l-6.6 4.1"/></g><g id="wacom-tablet_svg__wacom-tablet_svg__designerfav-tool-wacom_svg__XMLID_264_"><path id="wacom-tablet_svg__wacom-tablet_svg__designerfav-tool-wacom_svg__XMLID_266_" class="wacom-tablet_svg__wacom-tablet_svg__st13" d="M557.8 497.5l4.1 6.6"/><path id="wacom-tablet_svg__wacom-tablet_svg__designerfav-tool-wacom_svg__XMLID_265_" class="wacom-tablet_svg__wacom-tablet_svg__st13" d="M563.2 498.8l-6.7 4"/></g><g id="wacom-tablet_svg__wacom-tablet_svg__designerfav-tool-wacom_svg__XMLID_261_"><path id="wacom-tablet_svg__wacom-tablet_svg__designerfav-tool-wacom_svg__XMLID_263_" class="wacom-tablet_svg__wacom-tablet_svg__st13" d="M504.8 529.9l4.1 6.6"/><path id="wacom-tablet_svg__wacom-tablet_svg__designerfav-tool-wacom_svg__XMLID_262_" class="wacom-tablet_svg__wacom-tablet_svg__st13" d="M510.2 531.2l-6.7 4"/></g><g id="wacom-tablet_svg__wacom-tablet_svg__designerfav-tool-wacom_svg__XMLID_258_"><path id="wacom-tablet_svg__wacom-tablet_svg__designerfav-tool-wacom_svg__XMLID_260_" class="wacom-tablet_svg__wacom-tablet_svg__st13" d="M451.8 562.2l4 6.7"/><path id="wacom-tablet_svg__wacom-tablet_svg__designerfav-tool-wacom_svg__XMLID_259_" class="wacom-tablet_svg__wacom-tablet_svg__st13" d="M457.1 563.5l-6.6 4.1"/></g><g id="wacom-tablet_svg__wacom-tablet_svg__designerfav-tool-wacom_svg__XMLID_255_"><path id="wacom-tablet_svg__wacom-tablet_svg__designerfav-tool-wacom_svg__XMLID_257_" class="wacom-tablet_svg__wacom-tablet_svg__st13" d="M398.8 594.6l4 6.6"/><path id="wacom-tablet_svg__wacom-tablet_svg__designerfav-tool-wacom_svg__XMLID_256_" class="wacom-tablet_svg__wacom-tablet_svg__st13" d="M404.1 595.9l-6.6 4"/></g></g><g id="wacom-tablet_svg__wacom-tablet_svg__designerfav-tool-wacom_svg__XMLID_233_"><g id="wacom-tablet_svg__wacom-tablet_svg__designerfav-tool-wacom_svg__XMLID_250_"><path id="wacom-tablet_svg__wacom-tablet_svg__designerfav-tool-wacom_svg__XMLID_252_" class="wacom-tablet_svg__wacom-tablet_svg__st13" d="M631.5 379.7l4.1 6.7"/><path id="wacom-tablet_svg__wacom-tablet_svg__designerfav-tool-wacom_svg__XMLID_251_" class="wacom-tablet_svg__wacom-tablet_svg__st13" d="M636.8 381l-6.6 4.1"/></g><g id="wacom-tablet_svg__wacom-tablet_svg__designerfav-tool-wacom_svg__XMLID_247_"><path id="wacom-tablet_svg__wacom-tablet_svg__designerfav-tool-wacom_svg__XMLID_249_" class="wacom-tablet_svg__wacom-tablet_svg__st13" d="M578.5 412.1l4 6.6"/><path id="wacom-tablet_svg__wacom-tablet_svg__designerfav-tool-wacom_svg__XMLID_248_" class="wacom-tablet_svg__wacom-tablet_svg__st13" d="M583.8 413.4l-6.6 4"/></g><g id="wacom-tablet_svg__wacom-tablet_svg__designerfav-tool-wacom_svg__XMLID_244_"><path id="wacom-tablet_svg__wacom-tablet_svg__designerfav-tool-wacom_svg__XMLID_246_" class="wacom-tablet_svg__wacom-tablet_svg__st13" d="M525.5 444.5l4 6.6"/><path id="wacom-tablet_svg__wacom-tablet_svg__designerfav-tool-wacom_svg__XMLID_245_" class="wacom-tablet_svg__wacom-tablet_svg__st13" d="M530.8 445.8l-6.6 4"/></g><g id="wacom-tablet_svg__wacom-tablet_svg__designerfav-tool-wacom_svg__XMLID_241_"><path id="wacom-tablet_svg__wacom-tablet_svg__designerfav-tool-wacom_svg__XMLID_243_" class="wacom-tablet_svg__wacom-tablet_svg__st13" d="M472.5 476.8l4 6.7"/><path id="wacom-tablet_svg__wacom-tablet_svg__designerfav-tool-wacom_svg__XMLID_242_" class="wacom-tablet_svg__wacom-tablet_svg__st13" d="M477.8 478.1l-6.6 4.1"/></g><g id="wacom-tablet_svg__wacom-tablet_svg__designerfav-tool-wacom_svg__XMLID_238_"><path id="wacom-tablet_svg__wacom-tablet_svg__designerfav-tool-wacom_svg__XMLID_240_" class="wacom-tablet_svg__wacom-tablet_svg__st13" d="M419.4 509.2l4.1 6.6"/><path id="wacom-tablet_svg__wacom-tablet_svg__designerfav-tool-wacom_svg__XMLID_239_" class="wacom-tablet_svg__wacom-tablet_svg__st13" d="M424.8 510.5l-6.7 4"/></g><g id="wacom-tablet_svg__wacom-tablet_svg__designerfav-tool-wacom_svg__XMLID_235_"><path id="wacom-tablet_svg__wacom-tablet_svg__designerfav-tool-wacom_svg__XMLID_237_" class="wacom-tablet_svg__wacom-tablet_svg__st13" d="M366.4 541.6l4.1 6.6"/><path id="wacom-tablet_svg__wacom-tablet_svg__designerfav-tool-wacom_svg__XMLID_236_" class="wacom-tablet_svg__wacom-tablet_svg__st13" d="M371.7 542.9l-6.6 4"/></g></g><g id="wacom-tablet_svg__wacom-tablet_svg__designerfav-tool-wacom_svg__XMLID_212_"><g id="wacom-tablet_svg__wacom-tablet_svg__designerfav-tool-wacom_svg__XMLID_230_"><path id="wacom-tablet_svg__wacom-tablet_svg__designerfav-tool-wacom_svg__XMLID_232_" class="wacom-tablet_svg__wacom-tablet_svg__st13" d="M599.1 326.7l4.1 6.6"/><path id="wacom-tablet_svg__wacom-tablet_svg__designerfav-tool-wacom_svg__XMLID_231_" class="wacom-tablet_svg__wacom-tablet_svg__st13" d="M604.5 328l-6.6 4.1"/></g><g id="wacom-tablet_svg__wacom-tablet_svg__designerfav-tool-wacom_svg__XMLID_226_"><path id="wacom-tablet_svg__wacom-tablet_svg__designerfav-tool-wacom_svg__XMLID_229_" class="wacom-tablet_svg__wacom-tablet_svg__st13" d="M546.1 359.1l4.1 6.6"/><path id="wacom-tablet_svg__wacom-tablet_svg__designerfav-tool-wacom_svg__XMLID_228_" class="wacom-tablet_svg__wacom-tablet_svg__st13" d="M551.5 360.4l-6.7 4"/></g><g id="wacom-tablet_svg__wacom-tablet_svg__designerfav-tool-wacom_svg__XMLID_223_"><path id="wacom-tablet_svg__wacom-tablet_svg__designerfav-tool-wacom_svg__XMLID_225_" class="wacom-tablet_svg__wacom-tablet_svg__st13" d="M493.1 391.5l4 6.6"/><path id="wacom-tablet_svg__wacom-tablet_svg__designerfav-tool-wacom_svg__XMLID_224_" class="wacom-tablet_svg__wacom-tablet_svg__st13" d="M498.4 392.7l-6.6 4.1"/></g><g id="wacom-tablet_svg__wacom-tablet_svg__designerfav-tool-wacom_svg__XMLID_220_"><path id="wacom-tablet_svg__wacom-tablet_svg__designerfav-tool-wacom_svg__XMLID_222_" class="wacom-tablet_svg__wacom-tablet_svg__st13" d="M440.1 423.8l4 6.7"/><path id="wacom-tablet_svg__wacom-tablet_svg__designerfav-tool-wacom_svg__XMLID_221_" class="wacom-tablet_svg__wacom-tablet_svg__st13" d="M445.4 425.1l-6.6 4.1"/></g><g id="wacom-tablet_svg__wacom-tablet_svg__designerfav-tool-wacom_svg__XMLID_217_"><path id="wacom-tablet_svg__wacom-tablet_svg__designerfav-tool-wacom_svg__XMLID_219_" class="wacom-tablet_svg__wacom-tablet_svg__st13" d="M387.1 456.2l4 6.6"/><path id="wacom-tablet_svg__wacom-tablet_svg__designerfav-tool-wacom_svg__XMLID_218_" class="wacom-tablet_svg__wacom-tablet_svg__st13" d="M392.4 457.5l-6.6 4"/></g><g id="wacom-tablet_svg__wacom-tablet_svg__designerfav-tool-wacom_svg__XMLID_214_"><path id="wacom-tablet_svg__wacom-tablet_svg__designerfav-tool-wacom_svg__XMLID_216_" class="wacom-tablet_svg__wacom-tablet_svg__st13" d="M334 488.6l4.1 6.6"/><path id="wacom-tablet_svg__wacom-tablet_svg__designerfav-tool-wacom_svg__XMLID_215_" class="wacom-tablet_svg__wacom-tablet_svg__st13" d="M339.4 489.9l-6.6 4"/></g></g><g id="wacom-tablet_svg__wacom-tablet_svg__designerfav-tool-wacom_svg__XMLID_192_"><g id="wacom-tablet_svg__wacom-tablet_svg__designerfav-tool-wacom_svg__XMLID_209_"><path id="wacom-tablet_svg__wacom-tablet_svg__designerfav-tool-wacom_svg__XMLID_211_" class="wacom-tablet_svg__wacom-tablet_svg__st13" d="M566.8 273.7l4 6.6"/><path id="wacom-tablet_svg__wacom-tablet_svg__designerfav-tool-wacom_svg__XMLID_210_" class="wacom-tablet_svg__wacom-tablet_svg__st13" d="M572.1 275l-6.6 4"/></g><g id="wacom-tablet_svg__wacom-tablet_svg__designerfav-tool-wacom_svg__XMLID_206_"><path id="wacom-tablet_svg__wacom-tablet_svg__designerfav-tool-wacom_svg__XMLID_208_" class="wacom-tablet_svg__wacom-tablet_svg__st13" d="M513.8 306.1l4 6.6"/><path id="wacom-tablet_svg__wacom-tablet_svg__designerfav-tool-wacom_svg__XMLID_207_" class="wacom-tablet_svg__wacom-tablet_svg__st13" d="M519.1 307.4l-6.6 4"/></g><g id="wacom-tablet_svg__wacom-tablet_svg__designerfav-tool-wacom_svg__XMLID_203_"><path id="wacom-tablet_svg__wacom-tablet_svg__designerfav-tool-wacom_svg__XMLID_205_" class="wacom-tablet_svg__wacom-tablet_svg__st13" d="M460.7 338.4l4.1 6.7"/><path id="wacom-tablet_svg__wacom-tablet_svg__designerfav-tool-wacom_svg__XMLID_204_" class="wacom-tablet_svg__wacom-tablet_svg__st13" d="M466.1 339.7l-6.7 4.1"/></g><g id="wacom-tablet_svg__wacom-tablet_svg__designerfav-tool-wacom_svg__XMLID_200_"><path id="wacom-tablet_svg__wacom-tablet_svg__designerfav-tool-wacom_svg__XMLID_202_" class="wacom-tablet_svg__wacom-tablet_svg__st13" d="M407.7 370.8l4.1 6.6"/><path id="wacom-tablet_svg__wacom-tablet_svg__designerfav-tool-wacom_svg__XMLID_201_" class="wacom-tablet_svg__wacom-tablet_svg__st13" d="M413.1 372.1l-6.7 4"/></g><g id="wacom-tablet_svg__wacom-tablet_svg__designerfav-tool-wacom_svg__XMLID_197_"><path id="wacom-tablet_svg__wacom-tablet_svg__designerfav-tool-wacom_svg__XMLID_199_" class="wacom-tablet_svg__wacom-tablet_svg__st13" d="M354.7 403.2l4 6.6"/><path id="wacom-tablet_svg__wacom-tablet_svg__designerfav-tool-wacom_svg__XMLID_198_" class="wacom-tablet_svg__wacom-tablet_svg__st13" d="M360 404.5l-6.6 4"/></g><g id="wacom-tablet_svg__wacom-tablet_svg__designerfav-tool-wacom_svg__XMLID_194_"><path id="wacom-tablet_svg__wacom-tablet_svg__designerfav-tool-wacom_svg__XMLID_196_" class="wacom-tablet_svg__wacom-tablet_svg__st13" d="M301.7 435.5l4 6.7"/><path id="wacom-tablet_svg__wacom-tablet_svg__designerfav-tool-wacom_svg__XMLID_195_" class="wacom-tablet_svg__wacom-tablet_svg__st13" d="M307 436.8l-6.6 4.1"/></g></g></g><g id="wacom-tablet_svg__wacom-tablet_svg__designerfav-tool-wacom_svg__XMLID_139_" opacity=".4"><path id="wacom-tablet_svg__wacom-tablet_svg__designerfav-tool-wacom_svg__XMLID_138_" transform="rotate(-67.189 473.504 469.073)" class="wacom-tablet_svg__wacom-tablet_svg__st15" d="M455.4 340.5h36.2v257.1h-36.2z"/><path id="wacom-tablet_svg__wacom-tablet_svg__designerfav-tool-wacom_svg__XMLID_137_" class="wacom-tablet_svg__wacom-tablet_svg__st16" d="M597.6 505.7l-11.1 26.5 11 3.7c1.9.6 3.9-.3 4.7-2.1l7.5-17.9c.8-1.8 0-3.9-1.8-4.8l-10.3-5.4z"/><path id="wacom-tablet_svg__wacom-tablet_svg__designerfav-tool-wacom_svg__XMLID_136_" transform="rotate(-67.189 558.442 504.715)" class="wacom-tablet_svg__wacom-tablet_svg__st15" d="M537.8 482.3H579v44.9h-41.2z"/><path id="wacom-tablet_svg__wacom-tablet_svg__designerfav-tool-wacom_svg__XMLID_135_" class="wacom-tablet_svg__wacom-tablet_svg__st16" d="M470.5 450.4l-.6 1.3c-1.2 2.8-4.4 4.1-7.2 2.9l-67.5-28.4c-2.8-1.2-4.1-4.4-2.9-7.2l.6-1.3c1.2-2.8 4.4-4.1 7.2-2.9l67.5 28.4c2.8 1.2 4.1 4.4 2.9 7.2z"/><path id="wacom-tablet_svg__wacom-tablet_svg__designerfav-tool-wacom_svg__XMLID_116_" class="wacom-tablet_svg__wacom-tablet_svg__st16" d="M320.4 399.2l-3.9 9.3 31.5 27.4 14-33.4z"/><path id="wacom-tablet_svg__wacom-tablet_svg__designerfav-tool-wacom_svg__XMLID_115_" class="wacom-tablet_svg__wacom-tablet_svg__st16" d="M317.2 406.9l-7.9-6.9 10.4.9z"/><path id="wacom-tablet_svg__wacom-tablet_svg__designerfav-tool-wacom_svg__XMLID_114_" fill="none" stroke="#232323" stroke-width="8" stroke-linecap="round" stroke-linejoin="round" stroke-miterlimit="10" d="M301.8 396.8l7.3 3.1"/></g><g id="wacom-tablet_svg__wacom-tablet_svg__designerfav-tool-wacom_svg__XMLID_2_"><path id="wacom-tablet_svg__wacom-tablet_svg__designerfav-tool-wacom_svg__XMLID_254_" transform="rotate(-67.189 467.01 454.62)" class="wacom-tablet_svg__wacom-tablet_svg__st3" d="M448.9 326.1h36.2v257.1h-36.2z"/><path id="wacom-tablet_svg__wacom-tablet_svg__designerfav-tool-wacom_svg__XMLID_9_" transform="rotate(-67.189 462.185 466.128)" class="wacom-tablet_svg__wacom-tablet_svg__st5" d="M456.5 337.6h11.3v257.1h-11.3z"/><path id="wacom-tablet_svg__wacom-tablet_svg__designerfav-tool-wacom_svg__XMLID_110_" transform="rotate(-67.189 471.835 443.11)" opacity=".5" fill="#6a87ad" d="M466.2 314.6h11.3v257.1h-11.3z"/><path id="wacom-tablet_svg__wacom-tablet_svg__designerfav-tool-wacom_svg__XMLID_12_" transform="rotate(-67.189 467.01 454.62)" class="wacom-tablet_svg__wacom-tablet_svg__st19" d="M448.9 326.1h36.2v257.1h-36.2z"/><path id="wacom-tablet_svg__wacom-tablet_svg__designerfav-tool-wacom_svg__XMLID_274_" d="M591.1 491.3L580 517.8l11 3.7c1.9.6 3.9-.3 4.7-2.1l7.5-17.9c.8-1.8 0-3.9-1.8-4.8l-10.3-5.4z" fill="#6a87ad"/><path id="wacom-tablet_svg__wacom-tablet_svg__designerfav-tool-wacom_svg__XMLID_17_" class="wacom-tablet_svg__wacom-tablet_svg__st6" d="M591.1 491.3L580 517.8l11 3.7c1.9.6 3.9-.3 4.7-2.1l7.5-17.9c.8-1.8 0-3.9-1.8-4.8l-10.3-5.4z"/><path id="wacom-tablet_svg__wacom-tablet_svg__designerfav-tool-wacom_svg__XMLID_273_" transform="rotate(-67.189 551.909 490.354)" class="wacom-tablet_svg__wacom-tablet_svg__st21" d="M531.3 467.9h41.2v44.9h-41.2z"/><path id="wacom-tablet_svg__wacom-tablet_svg__designerfav-tool-wacom_svg__XMLID_10_" transform="rotate(-67.189 546.267 503.767)" class="wacom-tablet_svg__wacom-tablet_svg__st7" d="M540.2 481.3h12.1v44.9h-12.1z"/><path id="wacom-tablet_svg__wacom-tablet_svg__designerfav-tool-wacom_svg__XMLID_145_" transform="rotate(-67.189 557.623 476.73)" class="wacom-tablet_svg__wacom-tablet_svg__st22" d="M551.4 454.3h12.5v44.9h-12.5z"/><path id="wacom-tablet_svg__wacom-tablet_svg__designerfav-tool-wacom_svg__XMLID_19_" transform="rotate(-67.189 551.909 490.354)" class="wacom-tablet_svg__wacom-tablet_svg__st19" d="M531.3 467.9h41.2v44.9h-41.2z"/><path id="wacom-tablet_svg__wacom-tablet_svg__designerfav-tool-wacom_svg__XMLID_3_" d="M464 436l-.6 1.3c-1.2 2.8-4.4 4.1-7.2 2.9l-67.5-28.4c-2.8-1.2-4.1-4.4-2.9-7.2l.6-1.3c1.2-2.8 4.4-4.1 7.2-2.9l67.5 28.4c2.7 1.2 4.1 4.4 2.9 7.2z" fill="#81a0c1"/><path id="wacom-tablet_svg__wacom-tablet_svg__designerfav-tool-wacom_svg__XMLID_20_" class="wacom-tablet_svg__wacom-tablet_svg__st6" d="M464 436l-.6 1.3c-1.2 2.8-4.4 4.1-7.2 2.9l-67.5-28.4c-2.8-1.2-4.1-4.4-2.9-7.2l.6-1.3c1.2-2.8 4.4-4.1 7.2-2.9l67.5 28.4c2.7 1.2 4.1 4.4 2.9 7.2z"/><path id="wacom-tablet_svg__wacom-tablet_svg__designerfav-tool-wacom_svg__XMLID_275_" class="wacom-tablet_svg__wacom-tablet_svg__st21" d="M313.9 384.8l-3.9 9.3 31.4 27.4 14.1-33.4z"/><path id="wacom-tablet_svg__wacom-tablet_svg__designerfav-tool-wacom_svg__XMLID_134_" class="wacom-tablet_svg__wacom-tablet_svg__st22" d="M310 394.1l31.4 27.4 4.4-10.4-33.9-21.7z"/><path id="wacom-tablet_svg__wacom-tablet_svg__designerfav-tool-wacom_svg__XMLID_144_" class="wacom-tablet_svg__wacom-tablet_svg__st22" d="M313.9 384.8l41.6 3.3-4.4 10.4-39.2-9.1z"/><path id="wacom-tablet_svg__wacom-tablet_svg__designerfav-tool-wacom_svg__XMLID_23_" class="wacom-tablet_svg__wacom-tablet_svg__st6" d="M313.9 384.8l-3.9 9.3 31.4 27.4 14.1-33.4z"/><path id="wacom-tablet_svg__wacom-tablet_svg__designerfav-tool-wacom_svg__XMLID_18_" class="wacom-tablet_svg__wacom-tablet_svg__st6" d="M310.7 392.4l-7.9-6.8 10.4.8z"/><path id="wacom-tablet_svg__wacom-tablet_svg__designerfav-tool-wacom_svg__XMLID_22_" class="wacom-tablet_svg__wacom-tablet_svg__st6" d="M295.2 382.4l7.3 3.1"/></g><path id="wacom-tablet_svg__wacom-tablet_svg__designerfav-tool-wacom_svg__XMLID_53_" class="wacom-tablet_svg__wacom-tablet_svg__st2" d="M820.1 769.6h-18.7c-23.4 0-42.4-19-42.4-42.4l-1.5-100.7c.8-19.9 19.1-35.5 40.9-35.5H823c21.8 0 40.1 15.6 40.9 35.5l-1.5 100.7c.1 23.4-18.9 42.4-42.3 42.4z"/><path id="wacom-tablet_svg__wacom-tablet_svg__designerfav-tool-wacom_svg__XMLID_51_" d="M810.1 755.1h-18.7c-23.4 0-42.4-19-42.4-42.4L747.5 612c.8-19.9 19.1-35.5 40.9-35.5H813c21.8 0 40.1 15.6 40.9 35.5l-1.5 100.7c.1 23.4-18.9 42.4-42.3 42.4z" fill="#e2e9f2"/><path id="wacom-tablet_svg__wacom-tablet_svg__designerfav-tool-wacom_svg__XMLID_65_" class="wacom-tablet_svg__wacom-tablet_svg__st10" d="M816.8 576.7l-1.4 92.3c0 23.4-19 42.4-42.4 42.4h-18.7c-1.8 0-3.6-.1-5.4-.4v1.7c0 23.4 19 42.4 42.4 42.4H810c23.4 0 42.4-19 42.4-42.4L854 612c-.8-18.7-17.1-33.6-37.2-35.3z"/><path id="wacom-tablet_svg__wacom-tablet_svg__designerfav-tool-wacom_svg__XMLID_32_" class="wacom-tablet_svg__wacom-tablet_svg__st6" d="M810.1 755.1h-18.7c-23.4 0-42.4-19-42.4-42.4L747.5 612c.8-19.9 19.1-35.5 40.9-35.5H813c21.8 0 40.1 15.6 40.9 35.5l-1.5 100.7c.1 23.4-18.9 42.4-42.3 42.4z"/><path id="wacom-tablet_svg__wacom-tablet_svg__designerfav-tool-wacom_svg__XMLID_52_" class="wacom-tablet_svg__wacom-tablet_svg__st6" d="M800.7 576.5v58.2"/></svg>